<?xml version="1.0" encoding="UTF-8" standalone="no"?>
<!DOCTYPE svg PUBLIC "-//W3C//DTD SVG 1.1//EN" "http://www.w3.org/Graphics/SVG/1.1/DTD/svg11.dtd">
<svg width="100%" height="100%" viewBox="0 0 5906 5906" version="1.1" xmlns="http://www.w3.org/2000/svg" xmlns:xlink="http://www.w3.org/1999/xlink" xml:space="preserve" xmlns:serif="http://www.serif.com/" style="fill-rule:evenodd;clip-rule:evenodd;stroke-linejoin:round;stroke-miterlimit:2;">
    <g id="Logo-negativo" serif:id="Logo negativo">
        <g transform="matrix(0.980372,-0,0,0.980372,-17.949893,-284.4053)">
            <rect x="987.715" y="1259.506" width="4088.182" height="4088.182" style="fill:rgb(235,235,235);fill-opacity:0;"/>
            <path d="M5379.159,5650.949L684.454,5650.949L684.454,956.244L5379.159,956.244L5379.159,5650.949ZM5075.897,1259.506L987.715,1259.506L987.715,5347.687L5075.897,5347.687L5075.897,1259.506Z"/>
        </g>
        <g transform="matrix(2.801425,0,0,2.801425,-2244.770516,-2245.040651)">
            <path d="M2464.317,1246.258L2464.317,2464.467L1246.108,2464.467L1246.108,1246.258L2464.317,1246.258ZM2080.981,1441.773C2050.262,1496.516 2013.409,1547.987 1969.181,1595.681L2031.985,1681.25C2031.985,1681.25 2065.625,1656.918 2107.639,1599.565C2141.961,1552.712 2174.775,1491.397 2174.775,1491.397L2080.981,1441.773ZM1488.471,1741.244L1487.022,1741.213L1487.022,1847.332L1765.391,1847.332C1725.649,1939.142 1670.016,2021.444 1628.558,2071.384C1595.122,2111.661 1565.825,2138.045 1539.8,2161.716L1608.398,2242.683C1683.109,2179.623 1746.842,2099.314 1802.279,2005.967L1802.279,2369.747L1908.349,2369.747L1908.349,1919.699C1967.753,2016.599 2013.559,2116.737 2048.87,2219.374L2149.289,2184.966C2149.289,2184.966 2102.549,2057.821 2072.333,1994.835C2040.094,1927.631 1988.049,1847.309 1988.049,1847.309L2223.559,1847.309L2223.559,1741.481L1908.35,1741.481L1908.35,1341.027L1802.527,1341.027L1802.527,1741.244L1488.471,1741.244ZM1608.027,1425.737L1540.197,1507.378C1593.04,1550.943 1631.69,1605.322 1659.862,1667.684L1759.598,1631.421C1759.598,1631.421 1731.975,1562.926 1683.355,1502.235C1652.821,1464.119 1608.027,1425.737 1608.027,1425.737Z"/>
        </g>
    </g>
</svg>
